<?xml version="1.0" encoding="UTF-8" standalone="no"?><!DOCTYPE svg PUBLIC "-//W3C//DTD SVG 1.1//EN" "http://www.w3.org/Graphics/SVG/1.1/DTD/svg11.dtd"><svg width="100%" height="100%" viewBox="0 0 567 567" version="1.1" xmlns="http://www.w3.org/2000/svg" xmlns:xlink="http://www.w3.org/1999/xlink" xml:space="preserve" xmlns:serif="http://www.serif.com/" style="fill-rule:evenodd;clip-rule:evenodd;stroke-linejoin:round;stroke-miterlimit:2;"><g id="Layer-1" serif:id="Layer 1"><rect x="0" y="0" width="566.93" height="566.93" style="fill:#c0bfbf;"/><path d="M157.06,400.422l-5.608,-13.409l-5.288,13.409l10.896,0Zm16.771,15.273l-17.545,0l0,-0.595c1.583,-0.137 2.688,-0.396 3.311,-0.777c1.103,-0.672 1.656,-1.604 1.656,-2.796c0,-0.706 -0.25,-1.656 -0.748,-2.847l-0.454,-1.087l-2.564,-6.109l-11.75,0l-1.388,3.572l-0.668,1.605c-0.801,1.899 -1.202,3.391 -1.202,4.479c0,0.638 0.146,1.234 0.44,1.786c0.294,0.553 0.69,1.002 1.189,1.346c0.695,0.465 1.584,0.743 2.671,0.828l0,0.595l-11.964,0l0,-0.595c0.943,-0.052 1.77,-0.276 2.484,-0.673c0.711,-0.396 1.406,-1.035 2.083,-1.916c0.568,-0.706 1.124,-1.616 1.668,-2.73c0.543,-1.113 1.26,-2.784 2.15,-5.009l9.774,-24.412l1.523,0l11.616,27.208c0.872,2.053 1.566,3.52 2.083,4.4c0.515,0.88 1.076,1.546 1.682,1.993c0.428,0.311 0.916,0.548 1.469,0.713c0.551,0.164 1.38,0.306 2.484,0.426l0,0.595Z" style="fill:#facbcd;fill-rule:nonzero;"/><path d="M172.897,393.691l10.361,0l0,0.569c-0.783,0.157 -1.318,0.328 -1.602,0.519c-0.57,0.344 -0.854,0.896 -0.854,1.655c0,0.464 0.088,1.008 0.265,1.627c0.178,0.622 0.504,1.526 0.983,2.716l4.306,10.627l4.353,-11.067c0.641,-1.637 0.961,-2.853 0.961,-3.646c0,-0.86 -0.276,-1.49 -0.827,-1.887c-0.286,-0.207 -0.811,-0.387 -1.576,-0.544l0,-0.569l7.37,0l0,0.569c-0.998,0.243 -1.798,0.674 -2.404,1.293c-0.766,0.778 -1.648,2.407 -2.644,4.887l-6.168,15.255l-1.441,0l-6.703,-16.03c-1.034,-2.465 -1.772,-3.956 -2.217,-4.474c-0.249,-0.275 -0.526,-0.478 -0.828,-0.607c-0.303,-0.128 -0.748,-0.237 -1.335,-0.324l0,-0.569Z" style="fill:#facbcd;fill-rule:nonzero;"/><path d="M202.405,404.475c0,2.999 0.694,5.541 2.083,7.627c1.566,2.327 3.479,3.49 5.742,3.49c0.961,0 1.896,-0.258 2.803,-0.775c0.909,-0.516 1.691,-1.241 2.351,-2.171c0.694,-0.966 1.253,-2.177 1.68,-3.634c0.427,-1.455 0.641,-2.865 0.641,-4.226c0,-1.414 -0.226,-2.84 -0.681,-4.28c-0.453,-1.438 -1.062,-2.677 -1.827,-3.711c-1.461,-1.947 -3.25,-2.922 -5.368,-2.922c-2.012,0 -3.748,1.027 -5.208,3.078c-1.478,2.051 -2.216,4.559 -2.216,7.524m-4.86,0.297c0,-2.796 1.068,-5.289 3.204,-7.482c2.598,-2.657 5.706,-3.986 9.32,-3.986c3.613,0 6.711,1.329 9.292,3.986c2.136,2.209 3.205,4.711 3.205,7.507c0,2.763 -1.015,5.222 -3.045,7.378c-2.491,2.658 -5.642,3.987 -9.452,3.987c-3.81,0 -6.97,-1.329 -9.48,-3.987c-0.98,-1.035 -1.732,-2.191 -2.257,-3.469c-0.525,-1.276 -0.787,-2.588 -0.787,-3.934" style="fill:#facbcd;fill-rule:nonzero;"/><path d="M244.917,410.803l0.534,0.182c-0.623,1.83 -1.576,3.15 -2.857,3.96c-1.282,0.811 -3.045,1.216 -5.288,1.216c-3.596,0 -6.418,-1.035 -8.465,-3.106c-1.993,-2.036 -2.991,-4.607 -2.991,-7.714c0,-1.518 0.276,-3.019 0.828,-4.505c0.552,-1.482 1.309,-2.751 2.27,-3.804c1.085,-1.208 2.417,-2.131 3.991,-2.771c1.578,-0.638 3.299,-0.957 5.168,-0.957c2.581,0 4.603,0.562 6.062,1.683c0.891,0.691 1.336,1.449 1.336,2.277c0,0.553 -0.187,1.015 -0.561,1.386c-0.374,0.372 -0.828,0.555 -1.362,0.555c-1.158,0 -2.012,-0.818 -2.564,-2.459c-0.248,-0.757 -0.449,-1.275 -0.6,-1.552c-0.15,-0.276 -0.367,-0.518 -0.652,-0.725c-0.55,-0.396 -1.225,-0.596 -2.024,-0.596c-1.048,0 -2.016,0.284 -2.904,0.855c-0.78,0.501 -1.442,1.126 -1.984,1.877c-0.541,0.751 -1.018,1.695 -1.426,2.834c-0.62,1.743 -0.931,3.452 -0.931,5.126c0,1.536 0.284,3.037 0.853,4.504c0.568,1.467 1.341,2.692 2.318,3.675c1.529,1.554 3.324,2.33 5.385,2.33c1.706,0 3.118,-0.525 4.239,-1.579c0.568,-0.551 1.11,-1.45 1.625,-2.692" style="fill:#facbcd;fill-rule:nonzero;"/><path d="M261.715,402.985c-0.958,0.776 -2.014,1.458 -3.168,2.045c-1.295,0.673 -2.192,1.183 -2.688,1.527c-0.498,0.346 -0.951,0.76 -1.357,1.242c-0.836,1.002 -1.252,2.167 -1.252,3.496c0,1.138 0.323,2.08 0.97,2.821c0.649,0.743 1.469,1.113 2.464,1.113c0.87,0 1.69,-0.262 2.463,-0.789c0.771,-0.526 1.352,-1.23 1.743,-2.11c0.55,-1.157 0.825,-2.829 0.825,-5.023l0,-4.322Zm8.839,10.199l0.454,0.259c-0.641,1.812 -2.109,2.718 -4.406,2.718c-1.266,0 -2.319,-0.302 -3.156,-0.906c-0.553,-0.396 -1.123,-1.087 -1.712,-2.071c-1.194,1.035 -2.094,1.718 -2.7,2.045c-1.16,0.621 -2.506,0.932 -4.039,0.932c-1.962,0 -3.517,-0.457 -4.667,-1.372c-1.15,-0.913 -1.725,-2.149 -1.725,-3.701c0,-1.432 0.471,-2.632 1.415,-3.599c0.534,-0.534 1.149,-0.961 1.843,-1.28c0.694,-0.321 1.7,-0.643 3.018,-0.972c1.548,-0.379 2.692,-0.699 3.43,-0.958c0.74,-0.259 1.359,-0.569 1.857,-0.932c0.57,-0.396 0.962,-0.862 1.175,-1.398c0.214,-0.534 0.321,-1.276 0.321,-2.226c0,-2.019 -0.391,-3.495 -1.176,-4.426c-0.356,-0.431 -0.813,-0.777 -1.375,-1.037c-0.56,-0.258 -1.144,-0.387 -1.749,-0.387c-0.73,0 -1.379,0.18 -1.949,0.544c-0.571,0.362 -0.998,0.863 -1.282,1.501l-0.667,1.501c-0.357,0.812 -0.998,1.216 -1.923,1.216c-0.605,0 -1.113,-0.193 -1.523,-0.581c-0.409,-0.388 -0.614,-0.876 -0.614,-1.464c0,-0.879 0.643,-1.621 1.926,-2.225c0.696,-0.312 1.555,-0.566 2.581,-0.764c1.026,-0.197 2.028,-0.298 3.01,-0.298c1.106,0 2.255,0.139 3.449,0.414c1.196,0.278 2.195,0.63 2.998,1.062c1.158,0.64 1.88,1.468 2.166,2.484c0.143,0.519 0.214,1.391 0.214,2.616l0,9.578c0,1.623 0.07,2.726 0.213,3.313c0.303,1.226 1.032,1.838 2.19,1.838c0.551,0 0.983,-0.095 1.296,-0.285c0.311,-0.189 0.68,-0.569 1.107,-1.139" style="fill:#facbcd;fill-rule:nonzero;"/><path d="M290.049,404.513c0,-2.398 -0.107,-4.197 -0.319,-5.397c-0.213,-1.2 -0.594,-2.179 -1.144,-2.939c-0.478,-0.654 -1.121,-1.182 -1.929,-1.579c-0.807,-0.396 -1.635,-0.596 -2.486,-0.596c-1.898,0 -3.538,0.865 -4.922,2.589c-0.832,1.035 -1.484,2.271 -1.954,3.702c-0.47,1.433 -0.705,2.908 -0.705,4.427c0,1.484 0.221,2.939 0.664,4.362c0.443,1.424 1.046,2.645 1.81,3.662c1.329,1.761 2.961,2.641 4.893,2.641c0.922,0 1.8,-0.224 2.634,-0.673c0.833,-0.448 1.507,-1.069 2.022,-1.864c0.531,-0.828 0.904,-1.85 1.117,-3.066c0.212,-1.217 0.319,-2.973 0.319,-5.269m0.375,12.063c-0.179,-0.862 -0.267,-1.776 -0.267,-2.745c-1.316,0.829 -2.555,1.424 -3.721,1.786c-1.164,0.364 -2.413,0.544 -3.747,0.544c-2.702,0 -5.012,-0.784 -6.932,-2.355c-1.227,-1.001 -2.169,-2.255 -2.828,-3.766c-0.658,-1.51 -0.986,-3.163 -0.986,-4.958c0,-1.897 0.355,-3.653 1.066,-5.267c0.712,-1.614 1.707,-2.955 2.987,-4.027c2.026,-1.656 4.436,-2.484 7.226,-2.484c1.35,0 2.507,0.19 3.467,0.569c0.96,0.381 2.08,1.071 3.36,2.071l0,-9.571c0,-1.874 -0.322,-3.223 -0.968,-4.048c-0.645,-0.827 -1.711,-1.24 -3.198,-1.24l0,-0.621l8.198,-1.01l0,29.96c0,1.947 0.321,3.333 0.961,4.162c0.642,0.827 1.7,1.24 3.179,1.24l0,0.646l-7.797,1.114Z" style="fill:#facbcd;fill-rule:nonzero;"/><path d="M305.457,404.475c0,2.999 0.694,5.541 2.083,7.627c1.566,2.327 3.481,3.49 5.742,3.49c0.961,0 1.896,-0.258 2.804,-0.775c0.908,-0.516 1.691,-1.241 2.35,-2.171c0.694,-0.966 1.255,-2.177 1.682,-3.634c0.428,-1.455 0.641,-2.865 0.641,-4.226c0,-1.414 -0.226,-2.84 -0.682,-4.28c-0.452,-1.438 -1.063,-2.677 -1.828,-3.711c-1.46,-1.947 -3.249,-2.922 -5.368,-2.922c-2.012,0 -3.748,1.027 -5.207,3.078c-1.479,2.051 -2.217,4.559 -2.217,7.524m-4.86,0.297c0,-2.796 1.068,-5.289 3.205,-7.482c2.599,-2.657 5.705,-3.986 9.319,-3.986c3.615,0 6.713,1.329 9.294,3.986c2.136,2.209 3.204,4.711 3.204,7.507c0,2.763 -1.015,5.222 -3.044,7.378c-2.493,2.658 -5.644,3.987 -9.454,3.987c-3.809,0 -6.97,-1.329 -9.479,-3.987c-0.979,-1.035 -1.732,-2.191 -2.258,-3.469c-0.525,-1.276 -0.787,-2.588 -0.787,-3.934" style="fill:#facbcd;fill-rule:nonzero;"/><path d="M375.104,380.179l0.32,11.571l-0.614,0c-0.197,-0.499 -0.349,-0.88 -0.454,-1.138c-0.625,-1.658 -1.132,-2.891 -1.524,-3.703c-0.693,-1.449 -1.699,-2.777 -3.017,-3.986c-0.997,-0.914 -2.029,-1.579 -3.098,-1.993c-1.067,-0.414 -2.268,-0.621 -3.603,-0.621c-2.013,0 -3.757,0.423 -5.235,1.268c-1.299,0.744 -2.51,1.809 -3.631,3.198c-1.123,1.388 -2.04,2.972 -2.751,4.75c-1.015,2.503 -1.523,5.35 -1.523,8.542c0,2.711 0.348,5.151 1.042,7.326c0.694,2.175 1.709,3.995 3.044,5.462c2.457,2.727 5.715,4.09 9.774,4.09c2.03,0 3.855,-0.339 5.475,-1.022c1.619,-0.682 2.874,-1.644 3.765,-2.887c1.032,-1.431 1.78,-3.365 2.243,-5.798l0.614,0.103c-0.337,2.728 -1.103,4.893 -2.296,6.497c-1.138,1.537 -2.712,2.711 -4.713,3.521c-2.005,0.811 -4.323,1.216 -6.957,1.216c-2.457,0 -4.807,-0.353 -7.05,-1.061c-3.579,-1.139 -6.373,-3.196 -8.385,-6.173c-2.013,-2.976 -3.018,-6.528 -3.018,-10.653c0,-3.158 0.587,-6.07 1.763,-8.736c1.175,-2.667 2.813,-4.81 4.913,-6.433c1.62,-1.243 3.557,-2.23 5.81,-2.964c2.251,-0.733 4.507,-1.101 6.768,-1.101c2.153,0 4.433,0.398 6.837,1.191l2.189,0.699c0.427,0.155 0.801,0.233 1.122,0.233c0.445,0 0.81,-0.181 1.095,-0.544c0.124,-0.171 0.277,-0.457 0.453,-0.854l0.642,0Z" style="fill:#facbcd;fill-rule:nonzero;"/><path d="M378.575,380.257l7.69,-0.933l0,28.869l0.028,1.967c0,1.173 0.07,2.03 0.213,2.574c0.143,0.544 0.418,0.996 0.828,1.358c0.498,0.466 1.415,0.819 2.751,1.06l0,0.543l-11.804,0l0,-0.543c1.068,-0.137 1.833,-0.331 2.297,-0.581c0.463,-0.251 0.837,-0.677 1.121,-1.28c0.196,-0.396 0.335,-0.994 0.413,-1.797c0.082,-0.8 0.121,-1.96 0.121,-3.476l0,-20.29c0,-1.758 -0.044,-2.997 -0.134,-3.722c-0.088,-0.724 -0.284,-1.31 -0.586,-1.758c-0.304,-0.482 -0.668,-0.826 -1.095,-1.033c-0.428,-0.208 -1.042,-0.337 -1.843,-0.389l0,-0.569Z" style="fill:#facbcd;fill-rule:nonzero;"/><path d="M410.754,416.161c-0.23,-1.051 -0.347,-2.127 -0.347,-3.231c-2.226,2.155 -4.86,3.231 -7.905,3.231c-2.226,0 -4.015,-0.525 -5.367,-1.576c-1.319,-1.035 -1.977,-2.5 -1.977,-4.396l0,-8.998l-0.026,-1.966c0,-1.17 -0.07,-2.024 -0.214,-2.559c-0.143,-0.535 -0.41,-0.99 -0.801,-1.371c-0.516,-0.464 -1.442,-0.81 -2.777,-1.034l0,-0.57l7.851,0l0,13.125c0,1.847 0.066,3.214 0.2,4.104c0.134,0.889 0.377,1.617 0.733,2.186c0.39,0.588 0.949,1.05 1.678,1.386c0.728,0.337 1.546,0.504 2.45,0.504c0.996,0 1.928,-0.189 2.798,-0.567c0.87,-0.38 1.554,-0.898 2.052,-1.552c0.515,-0.672 0.856,-1.448 1.025,-2.327c0.168,-0.879 0.253,-2.326 0.253,-4.344l0,-5.066l-0.026,-1.915c0,-1.172 -0.067,-2.025 -0.202,-2.559c-0.131,-0.535 -0.403,-0.99 -0.813,-1.371c-0.498,-0.464 -1.425,-0.81 -2.777,-1.034l0,-0.57l7.851,0l0,14.04c0,1.776 0.048,3.022 0.148,3.736c0.096,0.715 0.289,1.297 0.573,1.745c0.32,0.482 0.694,0.833 1.121,1.048c0.428,0.215 1.042,0.348 1.843,0.4l0,0.543l-7.344,0.958Z" style="fill:#facbcd;fill-rule:nonzero;"/><path d="M427.338,404.396c0,1.844 0.106,3.542 0.318,5.094c0.214,1.552 0.488,2.679 0.826,3.386c0.408,0.845 1.014,1.509 1.822,1.992c0.805,0.483 1.722,0.723 2.752,0.723c2.163,0 3.951,-0.999 5.359,-2.998c1.409,-2 2.115,-4.543 2.115,-7.628c0,-1.62 -0.231,-3.159 -0.691,-4.615c-0.462,-1.457 -1.117,-2.693 -1.969,-3.711c-0.674,-0.845 -1.418,-1.486 -2.235,-1.926c-0.816,-0.438 -1.648,-0.66 -2.499,-0.66c-1.029,0 -1.985,0.307 -2.871,0.919c-0.888,0.611 -1.543,1.41 -1.969,2.392c-0.64,1.448 -0.958,3.792 -0.958,7.032m0,-7.834c0.746,-0.895 1.458,-1.56 2.133,-1.992c1.368,-0.844 3.004,-1.267 4.906,-1.267c2.702,0 5.058,0.836 7.065,2.508c2.491,2.053 3.735,4.948 3.735,8.689c0,3.741 -1.193,6.687 -3.579,8.842c-2.066,1.879 -4.709,2.819 -7.931,2.819c-1.692,0 -3.125,-0.224 -4.3,-0.672l-1.495,-0.595c-0.41,-0.155 -0.774,-0.233 -1.095,-0.233c-0.908,0 -1.71,0.715 -2.404,2.147l-1.067,0l0,-30.365c0,-1.933 -0.317,-3.317 -0.947,-4.154c-0.634,-0.837 -1.698,-1.255 -3.193,-1.255l0,-0.622l8.172,-1.087l0,17.238Z" style="fill:#facbcd;fill-rule:nonzero;"/><path d="M253.196,306.248c0,13.109 -7.923,23.736 -17.696,23.736c-9.773,0 -17.696,-10.627 -17.696,-23.736c0,-13.109 7.923,-23.736 17.696,-23.736c9.773,0 17.696,10.627 17.696,23.736" style="fill:#facbcd;fill-rule:nonzero;"/><path d="M226.093,165.599c0,0 -14.886,38.19 -22.329,57.285c-7.462,19.146 -14.925,38.292 -22.388,57.438c-5.272,13.527 -10.605,26.086 -18.718,38.36c-3.623,5.482 -11.637,15.942 -11.637,15.942l-16.205,21.444l70.098,0c-1.312,0 -3.515,-1.609 -4.588,-2.185c-3.913,-2.102 -7.589,-4.616 -10.907,-7.479c-1.986,-1.715 -3.795,-3.583 -5.441,-5.566c-15.774,-21.625 -4.267,-44.443 4.305,-66.168c7.862,-19.925 15.724,-39.851 23.586,-59.776c5.98,-15.156 17.941,-45.468 17.941,-45.468l-3.717,-3.827Z" style="fill:#facbcd;fill-rule:nonzero;"/><path d="M402.285,324.227c-6.875,-7.427 -12.033,-15.726 -16.349,-24.44c-4.994,-10.085 -8.859,-20.727 -12.949,-31.218c-6.223,-15.968 -12.448,-31.937 -18.673,-47.906c-10.323,-26.486 -20.647,-52.971 -30.97,-79.457c-0.444,-1.138 -0.888,-2.276 -1.331,-3.415l-85.081,0l-38.001,0c0,0 30.886,18.844 42.917,31.843c6.875,7.426 12.034,15.725 16.349,24.44c1.698,3.429 3.258,6.926 4.748,10.455c6.386,16.388 59.068,151.54 59.068,151.54l123.189,0c-16.09,-8.216 -30.885,-18.843 -42.917,-31.842" style="fill:#facbcd;fill-rule:nonzero;"/></g></svg>